<?xml version="1.0" encoding="utf-8"?>
<!-- Generator: Adobe Illustrator 16.0.3, SVG Export Plug-In . SVG Version: 6.00 Build 0)  -->
<!DOCTYPE svg PUBLIC "-//W3C//DTD SVG 1.1//EN" "http://www.w3.org/Graphics/SVG/1.1/DTD/svg11.dtd">
<svg version="1.1" id="Layer_1" xmlns="http://www.w3.org/2000/svg" xmlns:xlink="http://www.w3.org/1999/xlink" x="0px" y="0px"
	 width="960px" height="200px" viewBox="0 0 240 50" enable-background="new 0 0 240 50" xml:space="preserve">
<g>
	<g>
		<path fill="#003262" d="M165.633,22.491c0-0.768-0.576-1.056-1.799-1.379c-1.067-0.288-2.243-0.744-2.243-2.195
			c0-1.259,1.02-2.111,2.507-2.111c0.863,0,1.643,0.216,2.362,0.66l-0.359,0.888c-0.576-0.384-1.319-0.624-1.991-0.624
			c-1.079,0-1.523,0.492-1.523,1.116c0,0.755,0.636,1.019,1.823,1.343c1.092,0.288,2.207,0.815,2.207,2.23
			c0,1.295-1.067,2.243-2.639,2.243c-0.876,0-1.787-0.251-2.507-0.708l0.336-0.923c0.636,0.42,1.319,0.72,2.194,0.72
			C164.949,23.75,165.633,23.234,165.633,22.491z"/>
		<path fill="#003262" d="M173.803,18.353c-0.659-0.432-1.271-0.636-2.051-0.636c-1.631,0-2.723,1.127-2.723,2.986
			s1.104,3.046,2.747,3.046c0.803,0,1.595-0.324,2.122-0.732l0.168,1.02c-0.611,0.384-1.475,0.624-2.314,0.624
			c-2.194,0-3.754-1.523-3.754-3.91s1.571-3.946,3.754-3.946c0.852,0,1.763,0.24,2.375,0.624L173.803,18.353z"/>
		<path fill="#003262" d="M181.1,24.481v-3.31h-4.114v3.31h-1.02v-7.496h1.02v3.262h4.114v-3.262h1.007v7.496H181.1z"/>
		<path fill="#003262" d="M187.735,24.661c-2.194,0-3.766-1.535-3.766-3.91c0-2.243,1.559-3.946,3.766-3.946
			c2.195,0,3.767,1.523,3.767,3.898C191.502,22.946,189.942,24.661,187.735,24.661z M187.712,17.717
			c-1.596,0-2.711,1.187-2.711,2.986c0,1.847,1.115,3.046,2.759,3.046c1.595,0,2.723-1.2,2.723-2.999
			C190.482,18.904,189.354,17.717,187.712,17.717z"/>
		<path fill="#003262" d="M196.735,24.661c-2.194,0-3.766-1.535-3.766-3.91c0-2.243,1.559-3.946,3.766-3.946
			c2.195,0,3.767,1.523,3.767,3.898C200.502,22.946,198.942,24.661,196.735,24.661z M196.712,17.717
			c-1.596,0-2.711,1.187-2.711,2.986c0,1.847,1.115,3.046,2.759,3.046c1.595,0,2.723-1.2,2.723-2.999
			C199.482,18.904,198.354,17.717,196.712,17.717z"/>
		<path fill="#003262" d="M202.365,24.481v-7.496h1.02v6.537h3.622v0.959H202.365z"/>
		<path fill="#003262" d="M214.999,24.661c-2.194,0-3.766-1.535-3.766-3.91c0-2.243,1.559-3.946,3.766-3.946
			c2.195,0,3.767,1.523,3.767,3.898C218.766,22.946,217.206,24.661,214.999,24.661z M214.976,17.717
			c-1.596,0-2.711,1.187-2.711,2.986c0,1.847,1.115,3.046,2.759,3.046c1.595,0,2.723-1.2,2.723-2.999
			C217.746,18.904,216.618,17.717,214.976,17.717z"/>
		<path fill="#003262" d="M220.629,16.985h4.63v0.959h-3.61v2.435h2.986v0.947h-2.986v3.154h-1.02V16.985z"/>
		<path fill="#003262" d="M162.011,36.481v-7.496h1.007v7.496H162.011z"/>
		<path fill="#003262" d="M171.056,28.985h0.996v7.567h-1.104l-4.018-6.116v6.045h-0.996v-7.496h1.128l3.993,6.045V28.985z"/>
		<path fill="#003262" d="M174.43,28.985h4.63v0.959h-3.61v2.436h2.986v0.947h-2.986v3.154h-1.02V28.985z"/>
		<path fill="#003262" d="M183.859,36.661c-2.194,0-3.766-1.535-3.766-3.91c0-2.242,1.56-3.945,3.766-3.945
			c2.195,0,3.767,1.522,3.767,3.897C187.626,34.946,186.066,36.661,183.859,36.661z M183.836,29.717
			c-1.596,0-2.711,1.188-2.711,2.986c0,1.847,1.115,3.047,2.759,3.047c1.595,0,2.723-1.2,2.723-2.999
			C186.606,30.904,185.479,29.717,183.836,29.717z"/>
		<path fill="#003262" d="M190.389,36.481h-1.02v-7.496c0,0,2.231,0,2.243,0c1.811,0,2.758,0.863,2.758,2.194
			c0,1.128-0.659,1.823-1.69,2.159l2.026,3.143h-1.211l-1.823-2.975l-1.283,0.084V36.481z M191.624,32.655
			c0.983-0.036,1.728-0.504,1.728-1.427c0-0.888-0.72-1.308-1.859-1.308h-1.104v2.771L191.624,32.655z"/>
		<path fill="#003262" d="M202.975,30.244l-2.279,6.129h-1.02l-2.29-6.141l-0.084,6.249h-0.996l0.252-7.496h1.355l2.303,6.165
			l2.291-6.165h1.331l0.24,7.496h-1.032L202.975,30.244z"/>
		<path fill="#003262" d="M212.25,36.481h-1.043l-0.708-1.967h-3.25l-0.708,1.967h-1.056l2.818-7.496h1.164L212.25,36.481z
			 M208.88,30.041l-1.295,3.55h2.578L208.88,30.041z"/>
		<path fill="#003262" d="M216.127,29.944v6.537h-1.008v-6.537h-2.627v-0.959h6.261v0.959H216.127z"/>
		<path fill="#003262" d="M220.076,36.481v-7.496h1.007v7.496H220.076z"/>
		<path fill="#003262" d="M226.746,36.661c-2.194,0-3.766-1.535-3.766-3.91c0-2.242,1.56-3.945,3.766-3.945
			c2.195,0,3.767,1.522,3.767,3.897C230.513,34.946,228.953,36.661,226.746,36.661z M226.723,29.717
			c-1.596,0-2.711,1.188-2.711,2.986c0,1.847,1.115,3.047,2.759,3.047c1.595,0,2.723-1.2,2.723-2.999
			C229.493,30.904,228.365,29.717,226.723,29.717z"/>
		<path fill="#003262" d="M237.196,28.985h0.996v7.567h-1.104l-4.018-6.116v6.045h-0.996v-7.496h1.128l3.993,6.045V28.985z"/>
	</g>
	<g>
		<path fill="#003262" d="M12.665,19.609c-1.534,0-1.972,0.22-1.972,1.425v9.801c0,0.494,0.164,3.56,0.657,4.108
			c0.603,0.656,2.354,1.04,4.108,1.04c4.161,0,7.228-2.848,7.228-7.611C22.685,23.442,18.633,19.609,12.665,19.609 M14.471,4.331
			c-3.614,0-3.778,0.493-3.778,1.588v11.884c0,0.876,0.711,0.767,2.026,0.767c3.34,0,5.64,0.328,5.64,0.328
			c1.588-1.205,3.396-2.245,3.396-6.571C21.755,9.588,19.455,4.331,14.471,4.331 M15.183,36.969c-2.3,0-4.6-0.547-7.01-0.547
			c-2.3,0-3.504,0.219-5.257,0.219c-0.548,0-0.931-0.056-0.931-0.603c0-0.548,0.328-0.657,1.533-0.657
			c2.464,0,2.574-0.109,2.574-0.93V9.259c0-4.326-0.877-4.818-2.41-4.818C1.218,4.441,1,4.386,1,3.729
			c0-0.383,0.164-0.438,1.095-0.438c1.698,0,3.396,0.055,5.312,0.055c1.15,0,3.779-0.329,8.707-0.329
			c7.12,0,10.186,3.669,10.186,7.557s-2.354,5.805-4.107,7.009c-1.041,0.712-2.246,1.314-2.246,1.479
			c0,0.109,1.041,0.383,2.136,0.931c2.574,1.314,5.805,3.177,5.805,7.941C27.888,34.066,22.795,36.969,15.183,36.969"/>
		<path fill="#003262" d="M38.011,17.655c-3.62,0-4.764,5.429-4.764,6.096c0,0.239,0,0.286,0.572,0.286
			c2.477,0,5.048-0.62,8.621-1.191c0.524-0.095,0.572-0.19,0.572-0.476C43.012,21.179,40.202,17.655,38.011,17.655 M45.346,23.37
			c-1.238,0.286-6.002,1.334-11.431,1.667c-0.763,0.048-0.906,0.286-0.906,1.381c0,6.573,5.097,8.335,8.717,8.335
			c3.144,0,4.858-1.143,5.144-1.143c0.238,0,0.381,0.285,0.381,0.381c0,0.237-4.049,3.239-7.908,3.239
			c-3.905,0-9.716-1.906-9.716-9.859c0-6.717,4.525-10.718,8.859-10.718c2.478,0,5.526,1.573,7.24,3.573
			c0.81,0.952,1.572,2.095,1.572,2.476C47.299,22.894,46.632,23.084,45.346,23.37"/>
		<path fill="#003262" d="M62.779,22.084c-0.667,0-1.238-1.953-3.621-1.953c-2.762,0-3.81,1.143-3.81,3.143v9.813
			c0,2.334,0.143,2.334,3.667,2.334c1.238,0,1.286,0.143,1.286,0.572c0,0.524-0.047,0.477-1.286,0.477
			c-0.667,0-3.858-0.238-5.382-0.238c-1.62,0-3.239,0.238-3.905,0.238c-1.096,0-1.192,0-1.192-0.477
			c0-0.478,0.048-0.572,1.192-0.572c1.952,0,2.095-0.048,2.095-0.715V21.655c0-3.239,0.095-3.333-2.572-3.333
			c-0.858,0-0.858,0.048-0.858-0.477c0-0.572-0.048-0.715,0.763-0.715c1.619,0,2.524,0.095,3.477,0.095
			c0.762,0,1.667-0.238,2.429-0.238c0.191,0,0.381,0.143,0.381,0.524c0,0.238-0.096,1.286-0.096,1.429
			c0,0.429,0.047,0.762,0.238,0.762c0.714,0,2.953-2.477,5.191-2.477c0.858,0,3.049,1.048,3.049,2.287
			C63.826,19.988,63.064,22.084,62.779,22.084"/>
		<path fill="#003262" d="M85.308,36.66c-0.571,0-1.19-0.048-1.619-0.048c-0.571,0-2,0.048-2.667,0.048
			c-0.859,0-1.288-1.192-3.288-3.478c-2-2.286-4.002-5.287-4.288-5.287c-0.19,0-0.857,0.477-1.667,1
			c-0.762,0.477-1.429,0.811-1.429,1.239v3c0,2.238-0.095,2.238,2.858,2.238c1.095,0,1.286,0.238,1.286,0.62
			c0,0.477-0.238,0.477-1.286,0.477c-0.714,0-2.905-0.096-4.429-0.096c-1.62,0-3.382,0.096-4.049,0.096
			c-1.096,0-1.381-0.048-1.381-0.477c0-0.382,0.238-0.62,1.381-0.62c1.619,0,2.048,0,2.048-0.715c0-1.381,0.143-15.479,0.143-25.529
			c0-3.382-0.381-3.811-1.667-3.811c-1.953,0-2.143-0.143-2.143-0.477c0-0.476,0.095-0.667,0.619-0.667
			c3.429,0,6.24-1.047,6.668-1.047c0.238,0,0.333,0.143,0.333,0.429c0,0.619-0.095,2.62-0.095,4.144
			c0,7.24-0.286,12.575-0.286,20.338c0,0.19,0.048,0.334,0.191,0.334c1.191,0,6.146-4.382,7.669-5.812
			c1.857-1.762,2.286-2.571,2.286-3.571c0-0.762-0.143-0.857-2.238-0.857c-0.714,0-0.953-0.096-0.953-0.524
			c0-0.381,0.238-0.477,0.857-0.477c0.476,0,1.381,0.143,1.952,0.143c0.619,0,3.382-0.143,3.954-0.143
			c0.381,0,0.572,0.048,0.572,0.191c0,0.429-1.619,2.478-3.095,3.906c-2.382,2.334-5.335,4.429-5.335,4.763
			c0,0.429,0.857,1.334,4.191,5.335c1.621,1.952,3.144,4.286,4.763,4.286c1.143,0,1.524,0.238,1.524,0.62
			C86.69,36.564,86.356,36.66,85.308,36.66"/>
		<path fill="#003262" d="M93.549,17.655c-3.62,0-4.762,5.429-4.762,6.096c0,0.239,0,0.286,0.571,0.286
			c2.476,0,5.048-0.62,8.621-1.191c0.523-0.095,0.571-0.19,0.571-0.476C98.551,21.179,95.741,17.655,93.549,17.655 M100.885,23.37
			c-1.239,0.286-6.002,1.334-11.432,1.667c-0.762,0.048-0.905,0.286-0.905,1.381c0,6.573,5.096,8.335,8.716,8.335
			c3.144,0,4.859-1.143,5.145-1.143c0.237,0,0.38,0.285,0.38,0.381c0,0.237-4.049,3.239-7.907,3.239
			c-3.906,0-9.717-1.906-9.717-9.859c0-6.717,4.525-10.718,8.859-10.718c2.477,0,5.525,1.573,7.241,3.573
			c0.809,0.952,1.571,2.095,1.571,2.476C102.838,22.894,102.171,23.084,100.885,23.37"/>
		<path fill="#003262" d="M111.373,36.47c-0.715,0-1.762-0.096-2.62-0.096c-1.619,0-4.144,0.096-4.811,0.096
			c-1.096,0-1.191-0.096-1.191-0.477c0-0.334,0.048-0.62,1.191-0.62c1.953,0,2.763,0.048,2.763-0.81V8.319c0-3-0.286-3-2.429-3
			c-0.857,0-1.334-0.095-1.334-0.62c0-0.571,0.381-0.523,1.191-0.571c3.715-0.238,5.525-1.048,5.811-1.048
			c0.238,0,0.476,0.238,0.476,0.762c0,0.572-0.237,2.287-0.237,3.716c0,18.147-0.238,21.91-0.238,23.292
			c0,3.953,0.333,4.477,1.19,4.477c2.381,0,2.287,0.285,2.287,0.668C113.421,36.47,113.087,36.47,111.373,36.47"/>
		<path fill="#003262" d="M121.022,17.655c-3.619,0-4.763,5.429-4.763,6.096c0,0.239,0,0.286,0.571,0.286
			c2.478,0,5.049-0.62,8.623-1.191c0.523-0.095,0.572-0.19,0.572-0.476C126.025,21.179,123.214,17.655,121.022,17.655
			 M128.358,23.37c-1.238,0.286-6.002,1.334-11.432,1.667c-0.762,0.048-0.906,0.286-0.906,1.381c0,6.573,5.097,8.335,8.717,8.335
			c3.144,0,4.858-1.143,5.144-1.143c0.238,0,0.381,0.285,0.381,0.381c0,0.237-4.048,3.239-7.906,3.239
			c-3.906,0-9.717-1.906-9.717-9.859c0-6.717,4.526-10.718,8.86-10.718c2.478,0,5.526,1.573,7.24,3.573
			c0.81,0.952,1.571,2.095,1.571,2.476C130.311,22.894,129.644,23.084,128.358,23.37"/>
		<path fill="#003262" d="M149.935,18.274c-1.048,0-3.144,5.716-6.906,14.861c-3.002,7.287-5.145,11.146-6.668,14.29
			c-0.523,1.048-1.096,1.095-2.144,1.238c-1.43,0.19-1.763,0.571-2.811,0.571c-0.811,0-1.286-0.238-1.286-0.477
			c0-0.285,2.238-0.571,3.858-2.619c1.715-2.144,5.811-7.765,5.811-9.192c0-0.524-3.81-9.337-6.43-15.529
			c-1.191-2.857-1.525-3.096-2.382-3.096c-0.953,0-1-0.047-1-0.476c0-0.428,0.143-0.667,1-0.667c1.333,0,1.667,0.095,2.811,0.095
			c1.333,0,3-0.143,4.524-0.143c1,0,1.19,0.19,1.19,0.715c0,0.429-0.19,0.476-1.19,0.476c-1.143,0-1.429,0.286-1.429,1.381
			c0,1.381,1.238,3.048,4.096,10.384c0.382,1,0.953,1.81,1.144,1.81c0.333,0,0.62-0.667,1.381-2.906
			c1.144-3.429,2.858-8.383,2.858-9.049c0-1.429,0-1.714-1.619-1.714c-1.476,0-1.667,0-1.667-0.477c0-0.62,0.143-0.62,1-0.62
			c1.286,0,2.143,0.095,3.43,0.095c0.715,0,2-0.19,2.667-0.19c0.762,0,1,0.047,1,0.572
			C151.173,18.036,150.506,18.274,149.935,18.274"/>
	</g>
</g>
</svg>
